<?xml version="1.0" encoding="UTF-8"?>
<!DOCTYPE svg PUBLIC "-//W3C//DTD SVG 1.1//EN" "http://www.w3.org/Graphics/SVG/1.1/DTD/svg11.dtd">
<!-- Creator: CorelDRAW 2017 -->
<svg xmlns="http://www.w3.org/2000/svg" xml:space="preserve" width="1920px" height="532px" version="1.1" style="shape-rendering:geometricPrecision; text-rendering:geometricPrecision; image-rendering:optimizeQuality; fill-rule:evenodd; clip-rule:evenodd"
viewBox="0 0 1920 532.054"
 xmlns:xlink="http://www.w3.org/1999/xlink">
 <defs>
  <style type="text/css">
   <![CDATA[
    .fil0 {fill:#1859AD}
    .fil2 {fill:#00459F;fill-rule:nonzero}
    .fil3 {fill:#005899;fill-rule:nonzero}
    .fil12 {fill:#00669F;fill-rule:nonzero}
    .fil19 {fill:#11375A;fill-rule:nonzero}
    .fil1 {fill:#161E72;fill-rule:nonzero}
    .fil15 {fill:#171D4B;fill-rule:nonzero}
    .fil4 {fill:#46A0C8;fill-rule:nonzero}
    .fil18 {fill:#63C0C4;fill-rule:nonzero}
    .fil9 {fill:#ADD8DF;fill-rule:nonzero}
    .fil17 {fill:#E7365E;fill-rule:nonzero}
    .fil5 {fill:#EE8731;fill-rule:nonzero}
    .fil16 {fill:#F49B42;fill-rule:nonzero}
    .fil7 {fill:#F7B58E;fill-rule:nonzero}
    .fil13 {fill:#FF909F;fill-rule:nonzero}
    .fil11 {fill:#FFA64F;fill-rule:nonzero}
    .fil14 {fill:#FFA8A7;fill-rule:nonzero}
    .fil10 {fill:#FFC88C;fill-rule:nonzero}
    .fil6 {fill:white;fill-rule:nonzero}
    .fil20 {fill:url(#id0)}
    .fil8 {fill:url(#id1)}
   ]]>
  </style>
  <linearGradient id="id0" gradientUnits="userSpaceOnUse" x1="554.831" y1="373.924" x2="585.21" y2="373.924">
   <stop offset="0" style="stop-opacity:1; stop-color:#ADD8DF"/>
   <stop offset="1" style="stop-opacity:1; stop-color:#ADD8DF"/>
  </linearGradient>
  <linearGradient id="id1" gradientUnits="userSpaceOnUse" xlink:href="#id0" x1="444.854" y1="337.367" x2="423.756" y2="337.367">
  </linearGradient>
 </defs>
 <g id="圖層_x0020_1">
  <metadata id="CorelCorpID_0Corel-Layer"/>
  <g id="_1947706498528">
   <polygon class="fil0" points="0,532.054 0,305.105 1920,532.054 "/>
   <g>
    <path class="fil1" d="M871.052 221.798c0,0 20.505,-83.082 82.567,-91.985 52.75,94.103 -39.939,145.73 -39.939,145.73l-42.628 -53.745z"/>
    <path class="fil2" d="M953.619 129.813c0.183,0.327 0.358,0.652 0.539,0.978l-47.85 88.754 61.336 -13.868c-0.156,0.683 -0.319,1.362 -0.49,2.036l-62.029 14.025 -13.807 25.611 -1.271 -1.601 27.527 -51.054 -0.001 0 -17.073 -32.207c0.426,-0.529 0.853,-1.057 1.289,-1.581l16.857 31.8 33.804 -62.702c0.39,-0.063 0.776,-0.135 1.169,-0.191z"/>
    <path class="fil3" d="M899.809 217.58c0,0 67.742,-51.899 122.538,-27.339 6.401,71.929 -72.735,91.261 -72.735,91.261l-73.738 -11.491 23.935 -52.431z"/>
    <path class="fil4" d="M955.751 189.196l-3.069 37.718 68.359 -37.229c0.435,0.185 0.871,0.361 1.306,0.556 0.026,0.283 0.038,0.558 0.06,0.84l-36.611 19.939 33.021 12.061c-0.105,0.317 -0.22,0.627 -0.33,0.94l-0.302 0.829 -34.587 -12.633 -61.013 33.227 57.281 23.018c-0.687,0.41 -1.37,0.813 -2.049,1.201l-57.372 -23.053 -43.325 23.594 -1.245 -0.193 0.769 -1.687 74.065 -40.336 3.106 -38.186c0.643,-0.206 1.287,-0.407 1.936,-0.606z"/>
    <path class="fil5" d="M898.623 258.396c0,0 71.181,-2.582 90.1,41.358 -55.925,80.093 -161.753,14.612 -161.753,14.612l71.653 -55.97z"/>
    <path class="fil6" d="M988.721 299.755c-0.215,0.308 -0.432,0.608 -0.651,0.913l-96.385 -3.935 31.077 42.326c-0.731,0.071 -1.461,0.134 -2.191,0.191l-31.289 -42.615 -37.646 -1.537 2.289 -1.788 73.295 2.993 29.498 -26.902c0.617,0.281 1.231,0.57 1.841,0.864l-28.669 26.145 58.395 2.384c0.145,0.32 0.297,0.634 0.436,0.958l0 0.003z"/>
    <path class="fil7" d="M444.758 331.375c0.098,-0.292 0.53,-1.266 2.247,-2.592 1.539,-1.191 5.468,-2.728 3.764,-3.908 -2.105,0.169 -4.596,0.115 -4.596,0.115 -1.264,0.226 -2.744,1.799 -3.481,2.954l-1.836 3.822c0,0 0.846,1.877 0.87,1.973l0.879 -0.168c0.601,-0.847 1.334,-1.581 2.153,-2.196z"/>
    <path class="fil7" d="M444.851 330.298c0,0 0.003,-0.113 0.054,-0.312 -0.272,0.053 -0.544,0.09 -0.815,0.118 -0.868,0.53 -1.752,1.032 -2.626,1.552 0.372,0.458 0.892,1.101 0.92,1.153l6.394 -2.269c0,0 0.071,-0.875 -1.348,-0.846 -1.421,0.029 -2.579,0.604 -2.579,0.604z"/>
    <polygon class="fil8" points="423.756,336.468 429.63,346.79 430.788,344.351 443.886,333.738 444.854,327.944 "/>
    <path class="fil7" d="M449.088 328.291c0.04,0.002 0.079,0.007 0.118,0.008 -0.958,0.916 -1.254,1.574 -1.332,1.805 -0.398,0.299 -0.775,0.628 -1.127,0.982 -0.041,-0.35 -0.102,-0.69 -0.173,-1.024 0.913,-0.473 1.754,-1.073 2.514,-1.771z"/>
    <path class="fil7" d="M448.473 328.821c0.47,-0.168 1.222,-0.382 2.073,-0.398 1.42,-0.03 1.348,0.845 1.348,0.845l-5.146 1.826c-0.04,-0.352 -0.1,-0.696 -0.17,-1.035 0.672,-0.348 1.305,-0.763 1.895,-1.238z"/>
    <path class="fil4" d="M475.986 152.366c18.702,-11.722 43.366,-6.063 55.088,12.638 11.722,18.702 6.064,43.366 -12.638,55.088 -18.703,11.722 -43.366,6.064 -55.088,-12.638 -11.722,-18.702 -6.064,-43.366 12.638,-55.088zm-48.83 -48.515c-1.604,3.914 2.476,11.682 7.241,18.806 -6.536,6.446 -11.924,13.759 -16.102,21.641 -9.423,-1.821 -17.8,-1.843 -19.557,-0.399 -2.94,2.416 -11.192,25.396 -7.726,33.678 1.53,3.657 8.99,6.177 16.842,7.851 -0.093,9.35 1.255,18.774 4.174,27.92 -7.281,5.119 -12.584,10.504 -12.792,12.641 -0.372,3.786 10.043,25.872 18.349,29.277 3.498,1.434 10.076,-1.678 16.521,-5.757 6.974,6.967 14.936,12.62 23.524,16.853 -1.412,8.483 -1.325,15.705 0.004,17.322 2.415,2.938 25.395,11.192 33.677,7.726 3.497,-1.465 5.953,-8.351 7.626,-15.818 9.473,-0.173 18.987,-1.87 28.183,-5.146 5.108,7.256 10.47,12.531 12.603,12.74 3.787,0.37 25.872,-10.043 29.278,-18.351 1.513,-3.694 -2.042,-10.826 -6.455,-17.607 6.393,-6.84 11.562,-14.556 15.455,-22.81 9.367,1.794 17.668,1.807 19.417,0.371 2.939,-2.416 11.192,-25.396 7.726,-33.679 -1.647,-3.933 -10.153,-6.551 -18.631,-8.217 -0.316,-8.705 -1.912,-17.425 -4.847,-25.886 8.52,-5.568 15.022,-11.937 15.255,-14.309 0.37,-3.786 -10.044,-25.871 -18.351,-29.277 -4.104,-1.682 -12.448,2.89 -19.843,7.945 -6.328,-6.01 -13.423,-10.964 -21.013,-14.813 2.22,-10.211 2.353,-19.669 0.808,-21.549 -2.415,-2.939 -25.395,-11.192 -33.677,-7.727 -4.081,1.708 -6.745,10.797 -8.4,19.579 -8.596,0.066 -17.236,1.373 -25.65,3.982 -5.581,-8.56 -11.983,-15.104 -14.363,-15.337 -3.785,-0.37 -25.871,10.044 -29.276,18.35z"/>
    <path class="fil6" d="M544.937 155.94c-7.894,-12.593 -20.219,-21.358 -34.704,-24.681 -14.487,-3.324 -29.399,-0.806 -41.993,7.087 -12.593,7.892 -21.359,20.216 -24.682,34.704 -3.322,14.485 -0.806,29.398 7.087,41.991 7.893,12.594 20.218,21.359 34.703,24.684 14.487,3.321 29.4,0.805 41.993,-7.087 12.594,-7.894 21.359,-20.219 24.682,-34.704 2,-8.717 1.884,-17.585 -0.243,-26.01 -1.408,-5.581 -3.699,-10.966 -6.843,-15.984zm-102.997 16.738c3.424,-14.918 12.451,-27.61 25.42,-35.738 12.967,-8.129 28.326,-10.721 43.243,-7.298 14.919,3.423 27.61,12.449 35.739,25.419 8.128,12.966 10.719,28.324 7.299,43.243 -3.423,14.919 -12.451,27.61 -25.419,35.738 -12.969,8.13 -28.326,10.722 -43.244,7.299 -14.918,-3.423 -27.611,-12.45 -35.739,-25.421 -3.239,-5.166 -5.598,-10.711 -7.049,-16.458 -2.19,-8.676 -2.309,-17.81 -0.25,-26.784z"/>
    <path class="fil6" d="M468.864 108.362c0.236,0.295 0.476,0.586 0.724,0.871 -5.493,1.952 -10.861,4.507 -16.001,7.728 -38.098,23.879 -49.666,74.301 -25.786,112.399 15.635,24.946 42.649,38.511 70.134,38.206 0.001,0.003 0.001,0.005 0.002,0.009 0.125,0.353 0.266,0.7 0.415,1.044 -27.979,0.448 -55.534,-13.305 -71.449,-38.698 -24.19,-38.591 -12.471,-89.668 26.122,-113.857 5.092,-3.191 10.403,-5.74 15.839,-7.702z"/>
    <path class="fil6" d="M577.987 194.064c1.735,-17.37 -2.035,-35.415 -12.002,-51.316 -0.196,-0.313 -0.406,-0.606 -0.605,-0.914 0.366,-0.076 0.729,-0.173 1.092,-0.267 0.134,0.208 0.279,0.407 0.41,0.618 10.055,16.042 13.886,34.238 12.182,51.767 -0.36,0.029 -0.719,0.067 -1.077,0.112z"/>
    <path class="fil9" d="M498.061 296.535c0,0 13.672,-93.729 -46.23,-128.769 -93.366,74.438 -19.909,166.063 -19.909,166.063l66.139 -37.294z"/>
    <path class="fil6" d="M451.831 167.765c-0.325,0.26 -0.641,0.519 -0.962,0.779l11.991 110.962 -57.083 -39.829c-0.127,0.766 -0.241,1.529 -0.348,2.291l57.728 40.278 3.461 32.02 1.969 -1.111 -6.897 -63.829 30.949 -25.886c-0.215,-0.72 -0.432,-1.44 -0.66,-2.158l-30.558 25.557 -8.471 -78.39c-0.374,-0.226 -0.739,-0.461 -1.119,-0.684z"/>
    <path class="fil3" d="M479.256 297.961c0,0 -47.509,-98.024 -123.109,-96.949 -36.598,71.061 36.453,123.922 36.453,123.922l80.386 19.01 6.27 -45.983z"/>
    <path class="fil4" d="M424.85 227.749l-12.603 39.945 -54.529 -66.706c-0.523,0.007 -1.045,0.005 -1.571,0.024 -0.144,0.28 -0.271,0.556 -0.412,0.836l29.204 35.727 -38.886 -1.425c-0.024,0.37 -0.036,0.735 -0.055,1.102l-0.035 0.974 40.729 1.493 48.67 59.538 -68.329 -0.322c0.531,0.706 1.064,1.404 1.598,2.086l68.436 0.324 34.561 42.278 1.357 0.322 -0.085 -2.052 -59.079 -72.274 12.761 -40.441c-0.572,-0.48 -1.151,-0.955 -1.732,-1.429z"/>
    <path class="fil5" d="M467.003 322.455c0,0 -84.376,-32.284 -122.116,4.858 23.885,105.453 159.711,82.518 159.711,82.518l-37.595 -87.376z"/>
    <path class="fil6" d="M344.888 327.314c0.092,0.406 0.191,0.805 0.286,1.208l100.447 36.213 -49.53 30.411c0.718,0.379 1.441,0.747 2.166,1.11l49.868 -30.618 39.233 14.144 -1.6 -2.789 -76.384 -27.539 -19.005 -39.892c-0.75,0.031 -1.5,0.069 -2.248,0.117l18.471 38.773 -60.855 -21.94c-0.283,0.267 -0.569,0.525 -0.848,0.8l-0.001 0.002z"/>
    <path class="fil1" d="M486.512 336.814c6.43,-15.388 24.117,-22.65 39.504,-16.221 15.388,6.43 22.649,24.117 16.219,39.504 -6.43,15.387 -24.116,22.65 -39.502,16.219 -15.388,-6.429 -22.65,-24.115 -16.221,-39.502zm-51.284 -8.647c0.716,3.114 6.621,6.129 12.667,8.447 -1.221,6.827 -1.358,13.689 -0.5,20.374 -6.609,2.985 -11.787,6.624 -12.241,8.281 -0.762,2.771 4.165,20.551 9.914,24.15 2.54,1.589 8.242,-0.108 13.817,-2.498 4.02,5.81 8.961,11.038 14.75,15.408 -2.262,6.334 -3.186,11.969 -2.383,13.379 1.422,2.497 17.477,11.586 24.087,10.065 2.784,-0.64 5.487,-5.429 7.685,-10.756 7.342,1.259 14.719,1.276 21.864,0.143 2.828,5.85 6.029,10.268 7.555,10.687 2.772,0.761 20.55,-4.165 24.149,-9.916 1.52,-2.427 0.032,-7.749 -2.191,-13.084 5.771,-4.238 10.902,-9.433 15.148,-15.463 6.314,2.249 11.925,3.166 13.332,2.366 2.497,-1.422 11.586,-17.478 10.065,-24.089 -0.676,-2.941 -5.981,-5.791 -11.66,-8.052 0.963,-7.008 0.788,-14.022 -0.409,-20.814 6.563,-2.975 11.691,-6.587 12.144,-8.237 0.76,-2.771 -4.166,-20.55 -9.916,-24.149 -2.731,-1.71 -9.122,0.383 -15.08,3.051 -3.99,-5.234 -8.777,-9.919 -14.277,-13.859 2.829,-7.151 4.065,-13.916 3.174,-15.481 -1.422,-2.498 -17.477,-11.586 -24.089,-10.064 -3.265,0.751 -6.421,7.209 -8.78,13.552 -6.526,-0.948 -13.064,-0.912 -19.425,0.023 -3.083,-7.27 -7.123,-13.165 -8.896,-13.651 -2.773,-0.76 -20.552,4.167 -24.15,9.916 -1.774,2.833 0.544,9.604 3.352,15.744 -5.275,3.788 -10.036,8.361 -14.091,13.641 -7.176,-2.85 -13.98,-4.097 -15.55,-3.203 -2.497,1.423 -11.586,17.478 -10.065,24.089z"/>
    <path class="fil6" d="M475.569 331.518c-8.949,21.416 1.194,46.12 22.612,55.07 21.415,8.95 46.121,-1.194 55.069,-22.611 8.95,-21.416 -1.194,-46.122 -22.611,-55.072 -21.417,-8.948 -46.121,1.196 -55.07,22.613zm-1.057 -0.441c9.193,-22 34.568,-32.419 56.569,-23.226 21.998,9.192 32.418,34.568 23.225,56.567 -9.192,21.999 -34.568,32.418 -56.567,23.226 -22,-9.193 -32.418,-34.568 -23.227,-56.567z"/>
    <path class="fil6" d="M462.932 312.765c0.273,0.079 0.549,0.155 0.826,0.221 -2.537,3.6 -4.737,7.517 -6.504,11.746 -13.097,31.347 1.748,67.503 33.093,80.6 20.526,8.577 43.111,5.17 59.936,-7.001 0.002,0.001 0.004,0.003 0.006,0.004 0.231,0.162 0.469,0.316 0.71,0.464 -17.069,12.474 -40.068,16.002 -60.96,7.272 -31.752,-13.267 -46.791,-49.894 -33.523,-81.647 1.75,-4.189 3.917,-8.079 6.416,-11.659z"/>
    <path class="fil6" d="M567.635 318.071c-6.503,-11.474 -16.697,-20.966 -29.78,-26.433 -0.257,-0.106 -0.516,-0.195 -0.773,-0.299 0.193,-0.207 0.375,-0.425 0.559,-0.642 0.174,0.071 0.349,0.131 0.522,0.203 13.198,5.515 23.497,15.073 30.086,26.632 -0.208,0.175 -0.413,0.356 -0.614,0.539z"/>
    <path class="fil10" d="M697.798 299.287c-10.245,-31.177 6.724,-64.759 37.902,-75.004 31.176,-10.247 64.757,6.722 75.003,37.9 10.246,31.178 -6.723,64.759 -37.9,75.004 -31.179,10.245 -64.76,-6.722 -75.005,-37.9zm-87.453 53.169c5.075,3.711 17.745,0.594 29.728,-3.742 6.972,11.734 15.606,22.122 25.49,30.965 -5.992,12.951 -9.012,25.034 -7.554,28.086 2.437,5.104 32.661,25.218 45.853,23.171 5.824,-0.904 12.124,-10.771 17.345,-21.508 13.461,3.469 27.546,4.886 41.789,3.937 4.789,12.337 10.669,21.913 13.681,22.978 5.331,1.885 40.925,-5.264 48.805,-16.04 3.318,-4.536 1.174,-15.141 -2.412,-25.9 12.543,-7.581 23.546,-17.054 32.72,-27.941 11.74,5.066 22.195,7.518 25.003,6.177 5.103,-2.436 25.217,-32.661 23.17,-45.853 -0.864,-5.569 -9.93,-11.572 -20.11,-16.651 3.131,-13.737 4.076,-28.074 2.631,-42.517 12.294,-4.784 21.823,-10.642 22.887,-13.645 1.885,-5.332 -5.264,-40.927 -16.04,-48.807 -4.793,-3.505 -16.357,-0.918 -27.72,3.031 -7.591,-11.669 -16.881,-21.882 -27.408,-30.446 5.933,-12.879 8.915,-24.857 7.464,-27.895 -2.437,-5.104 -32.662,-25.217 -45.853,-23.17 -6.266,0.972 -13.081,12.316 -18.51,23.958 -12.68,-2.647 -25.834,-3.458 -39.093,-2.24 -4.998,-14.286 -11.871,-25.944 -15.211,-27.125 -5.331,-1.886 -40.927,5.263 -48.806,16.039 -3.893,5.324 -0.273,18.999 4.384,31.476 -10.932,6.99 -20.615,15.464 -28.879,25.045 -13.947,-6.848 -27.55,-10.416 -30.816,-8.857 -5.103,2.436 -25.217,32.661 -23.17,45.852 1.009,6.501 13.177,13.591 25.262,19.113 -2.973,12.429 -4.168,25.368 -3.406,38.444 -14.348,5.001 -26.078,11.907 -27.263,15.258 -1.886,5.332 5.263,40.927 16.039,48.807z"/>
    <path class="fil6" d="M674.194 305.662c14.35,43.669 61.553,67.523 105.224,53.171 43.67,-14.35 67.522,-61.554 53.172,-105.224 -14.352,-43.67 -61.554,-67.523 -105.225,-53.172 -43.67,14.35 -67.523,61.554 -53.171,105.225zm-1.141 0.375c-14.557,-44.3 9.639,-92.183 53.938,-106.74 44.298,-14.559 92.182,9.638 106.738,53.937 14.558,44.3 -9.637,92.182 -53.937,106.739 -44.298,14.558 -92.182,-9.637 -106.739,-53.936z"/>
    <path class="fil6" d="M631.74 293.862c0.511,-0.235 1.016,-0.476 1.514,-0.736 0.859,8.627 2.631,17.287 5.447,25.857 20.871,63.512 89.521,98.201 153.032,77.331 41.588,-13.666 70.811,-47.818 80.177,-87.597l0.014 0c0.555,-0.056 1.105,-0.134 1.654,-0.227 -9.337,40.545 -39.022,75.41 -81.352,89.321 -64.337,21.142 -133.879,-13.999 -155.022,-78.336 -2.789,-8.488 -4.572,-17.067 -5.464,-25.613z"/>
    <path class="fil6" d="M794.386 166.938c-24.452,-8.703 -51.845,-9.701 -78.355,-0.989 -0.52,0.17 -1.02,0.371 -1.535,0.547 0.021,-0.556 0.012,-1.114 0.005,-1.673 0.349,-0.118 0.686,-0.255 1.039,-0.371 26.743,-8.788 54.375,-7.823 79.066,0.891 -0.085,0.53 -0.157,1.061 -0.22,1.595z"/>
    <path class="fil5" d="M624.16 71.431l-16.665 -0.09c0,0 1.27,-5.068 0.794,-8.961 -0.18,-1.471 -1.072,-2.771 -2.328,-3.558 -16.333,-10.212 -12.329,-21.876 -12.329,-21.876 0,0 1.777,-14.81 22.771,-16.13 22.382,-1.409 20.935,18.471 20.935,18.471 0,0 0.962,11.071 -10.689,18.522 -1.667,1.065 -2.725,2.865 -2.976,4.827 -0.63,4.928 0.487,8.795 0.487,8.795z"/>
    <path class="fil9" d="M607.495 71.3l-0.032 5.969c-0.012,2.238 1.439,4.076 3.225,4.086l10.148 0.054c1.784,0.01 3.256,-1.812 3.269,-4.049l0.032 -5.97 -16.642 -0.09z"/>
    <polygon class="fil4" points="611.737,81.36 612.87,84.093 619.18,84.127 620.575,81.407 "/>
    <path class="fil10" d="M608.985 40.672c1.894,-0.946 3.417,-0.045 4.273,0.806 0.479,0.477 0.737,1.128 0.733,1.803l-0.02 3.635c-2.122,0.171 -4.17,-0.376 -5.45,-2.289 -0.869,-1.3 -0.728,-3.22 0.464,-3.955zm9.858 3.483c-0.013,-0.57 0.836,-5.12 3.642,-2.582 0.293,0.265 0.463,0.667 0.409,1.057 -0.22,1.6 -2.496,2.674 -4.103,3.2 -0.006,-0.562 -0.008,-1.124 0.052,-1.675zm-5.556 3.507c0.214,0.002 0.451,-0.012 0.681,-0.021l-0.129 23.645 1.139 0.007 0.128 -23.737c0.812,-0.087 1.661,-0.231 2.512,-0.438 0.012,0.447 0.023,0.882 0.016,1.292 -0.036,2.607 -0.072,5.214 -0.109,7.822 -0.069,5.024 -0.139,10.048 -0.21,15.073l1.139 0.006c0.114,-8.174 0.228,-16.349 0.341,-24.524 1.443,-0.461 2.78,-1.101 3.69,-1.962 3.887,-3.677 -2.737,-7.71 -4.5,-2.548 -0.397,1.163 -0.42,2.561 -0.391,3.915 -0.746,0.214 -1.73,0.442 -2.616,0.59 0,0 0.032,-2.183 0.012,-3.584 -0.012,-0.792 -0.247,-1.587 -0.778,-2.175 -2.931,-3.246 -9.174,-0.94 -6.666,3.792 1.081,2.038 3.576,2.83 5.741,2.847z"/>
    <path class="fil11" d="M635.036 16.865c-0.342,-0.346 -0.339,-0.903 0.007,-1.246l8.459 -8.368c0.347,-0.343 0.905,-0.339 1.247,0.006 0.344,0.347 0.34,0.905 -0.006,1.247l-8.46 8.368c-0.347,0.342 -0.904,0.34 -1.247,-0.007z"/>
    <path class="fil11" d="M597.895 16.664c0.345,-0.342 0.349,-0.9 0.006,-1.247l-8.368 -8.459c-0.343,-0.346 -0.899,-0.349 -1.246,-0.007 -0.347,0.343 -0.35,0.9 -0.007,1.247l8.368 8.46c0.342,0.345 0.9,0.348 1.247,0.006z"/>
    <path class="fil11" d="M613.819 13.663c-0.487,-0.003 -0.879,-0.4 -0.877,-0.886l0.065 -11.899c0.002,-0.488 0.4,-0.88 0.886,-0.878 0.488,0.004 0.879,0.4 0.877,0.887l-0.065 11.898c-0.002,0.489 -0.398,0.88 -0.886,0.878z"/>
    <polygon class="fil12" points="818.263,414.403 876.134,220.48 872.839,220.48 814.967,414.403 "/>
    <polygon class="fil12" points="848.186,414.403 906.058,220.48 902.763,220.48 844.89,414.403 "/>
    <polygon class="fil12" points="857.845,270.84 857.845,273.73 888.852,273.711 889.382,270.82 "/>
    <polygon class="fil12" points="864.256,252.048 864.256,254.941 895.262,254.921 895.791,252.03 "/>
    <polygon class="fil12" points="869.556,233.259 869.556,236.15 900.562,236.131 901.092,233.24 "/>
    <polygon class="fil12" points="883.734,289.852 852.198,289.871 852.198,292.761 883.205,292.744 "/>
    <polygon class="fil12" points="846.898,308.901 846.898,311.793 877.904,311.774 878.434,308.883 "/>
    <polygon class="fil12" points="841.415,328.674 840.162,331.567 871.168,331.547 871.697,328.655 "/>
    <polygon class="fil12" points="835.601,348.447 834.348,351.339 865.355,351.32 865.885,348.428 "/>
    <polygon class="fil12" points="830.158,367.779 828.905,370.671 859.911,370.652 860.44,367.76 "/>
    <polygon class="fil12" points="825.647,387.533 824.394,390.425 855.4,390.407 855.93,387.515 "/>
    <polygon class="fil12" points="801.315,460.195 832.467,355.806 835.763,355.806 804.611,460.195 "/>
    <polygon class="fil12" points="831.238,460.195 862.39,355.806 865.686,355.806 834.534,460.195 "/>
    <polygon class="fil12" points="817.474,406.167 817.474,409.058 848.48,409.038 849.009,406.147 "/>
    <polygon class="fil12" points="843.363,425.179 811.826,425.199 811.826,428.088 842.832,428.071 "/>
    <polygon class="fil12" points="806.525,444.229 806.525,447.121 837.532,447.101 838.062,444.21 "/>
    <polygon class="fil1" points="962.51,414.403 904.639,220.48 907.934,220.48 965.806,414.403 "/>
    <polygon class="fil1" points="932.587,414.403 874.715,220.48 878.01,220.48 935.883,414.403 "/>
    <polygon class="fil1" points="922.927,270.84 922.927,273.73 891.92,273.711 891.391,270.82 "/>
    <polygon class="fil1" points="916.517,252.048 916.517,254.941 885.51,254.921 884.981,252.03 "/>
    <polygon class="fil1" points="911.216,233.259 911.216,236.15 880.21,236.131 879.68,233.24 "/>
    <polygon class="fil1" points="928.575,289.871 928.575,292.762 897.569,292.743 897.039,289.852 "/>
    <polygon class="fil1" points="933.875,308.901 933.875,311.793 902.869,311.774 902.34,308.883 "/>
    <polygon class="fil1" points="939.358,328.674 940.611,331.567 909.605,331.547 909.075,328.655 "/>
    <polygon class="fil1" points="945.172,348.447 946.424,351.339 915.417,351.32 914.888,348.428 "/>
    <polygon class="fil1" points="950.615,367.779 951.868,370.671 920.862,370.652 920.333,367.76 "/>
    <polygon class="fil1" points="955.126,387.533 956.379,390.425 925.373,390.407 924.843,387.515 "/>
    <polygon class="fil1" points="976.221,460.195 945.909,358.622 949.205,358.622 979.517,460.195 "/>
    <polygon class="fil1" points="946.298,460.195 915.985,358.622 919.282,358.622 949.594,460.195 "/>
    <polygon class="fil1" points="964.198,408.981 964.198,411.873 933.191,411.854 932.662,408.962 "/>
    <polygon class="fil1" points="969.846,428.013 969.846,430.905 938.84,430.886 938.31,427.995 "/>
    <polygon class="fil1" points="975.146,447.045 975.146,449.936 944.14,449.917 943.61,447.025 "/>
    <polygon class="fil13" points="423.113,331.925 422.618,338.188 416.473,338.454 418.949,328.746 "/>
    <path class="fil14" d="M425.74 333.069c0.78,-0.021 1.502,-0.137 1.88,-0.445 2.249,-3.269 -0.312,-12.086 -0.312,-12.086l-3.594 -1.513 -4.567 2.848 -0.26 5.907c-0.069,1.576 0.688,3.091 2.038,4.076 1.448,0.812 3.118,1.261 4.815,1.213z"/>
    <path class="fil15" d="M419.867 325.222c0.25,-0.993 0.12,-3.283 1.13,-3.118 0.737,0.122 3.263,0.225 4.113,0.225 2.026,0 5.636,-0.792 5.636,-3.875 0,-1.541 -1.494,-2.869 -2.441,-3.264 -0.929,-0.389 -1.979,-0.37 -2.929,-0.037 -2.231,0.778 -5.19,2.499 -6.368,2.262 -1.986,-0.399 -3.966,0.764 -3.938,2.452 0.03,1.801 0.97,4.511 1.855,6.232 0.513,0.995 1.198,1.889 2.023,2.647l0.919 -3.524z"/>
    <path class="fil14" d="M417.813 325.444c0.451,-0.398 1.296,-0.323 1.887,0.169 0.591,0.492 0.703,1.213 0.253,1.612 -0.452,0.399 -1.297,0.323 -1.888,-0.169 -0.59,-0.491 -0.704,-1.213 -0.252,-1.612z"/>
    <path class="fil9" d="M419.793 334.455c-14.064,-2.916 -11.613,43.653 -11.613,43.653l22.247 0c0,0 0.319,-8.108 1.132,-18.388 0.691,-8.719 -4.201,-18.564 -11.766,-25.265z"/>
    <path class="fil15" d="M427.119 455.148c0,0 2.191,2.032 7.187,3.305 1.101,0.279 2.287,-0.095 2.287,1.719l-6.064 0 -5.043 -0.871 0 0.871 -2.723 0c0,0 -0.759,-4.454 0.832,-5.024l3.524 0z"/>
    <path class="fil14" d="M426.812 451.948l0.307 3.2c-0.994,0.689 -2.3,0.732 -3.338,0.111l-0.187 -0.111 -0.565 -3.2 3.783 0z"/>
    <path class="fil15" d="M405.71 450.67c0,0 2.191,2.033 7.187,3.306 1.1,0.28 2.287,-0.094 2.287,1.72l-6.064 0 -5.042 -0.872 0 0.872 -2.725 0c0,0 -0.758,-4.454 0.833,-5.026l3.524 0z"/>
    <path class="fil14" d="M405.403 447.471l0.307 3.199c-0.994,0.69 -2.299,0.733 -3.337,0.112l-0.187 -0.112 -0.565 -3.199 3.782 0z"/>
    <path class="fil15" d="M408.18 378.108c0,0 1.781,9.43 0.187,28.956 -0.281,3.448 -1.063,6.837 -2.32,10.059 -4.286,10.981 -4.874,31.249 -4.874,31.249l4.903 0 17.274 -49.398 -15.17 -20.866z"/>
    <path class="fil1" d="M430.428 378.108l-3.236 74.695 -4.384 0c0,0 -4.916,-17.414 -4.547,-31.144 0.117,-4.348 -0.621,-8.682 -2.243,-12.716 -6.688,-16.627 -7.838,-30.835 -7.838,-30.835l22.248 0z"/>
    <polygon class="fil6" points="423.113,337.788 423.113,334.709 417.973,332.573 416.104,334.941 "/>
    <path class="fil14" d="M458.656 349.045c0.307,-0.03 1.352,-0.235 3.03,-1.611 1.503,-1.236 3.88,-4.721 4.649,-2.797 -0.634,2.014 -1.137,4.454 -1.137,4.454 -0.505,1.182 -2.369,2.273 -3.658,2.733l-4.136 0.936c0,0 -1.64,-1.243 -1.729,-1.288l0.36 -0.819c0.959,-0.397 1.839,-0.948 2.621,-1.608z"/>
    <path class="fil14" d="M459.728 349.195c0,0 0.111,0.023 0.315,0.017 -0.112,0.253 -0.208,0.51 -0.297,0.768 -0.71,0.727 -1.397,1.477 -2.099,2.212 -0.363,-0.464 -0.874,-1.115 -0.918,-1.154l3.64 -5.726c0,0 0.868,0.127 0.523,1.504 -0.344,1.377 -1.164,2.379 -1.164,2.379z"/>
    <path class="fil9" d="M416.473 349.826c0,0 3.845,14.33 14.273,15.65 10.429,1.319 27.585,-11.878 27.585,-11.878l-1.884 -3.772 -18.103 5.069c-2.756,0.773 -5.68,-0.464 -7.045,-2.979l-5.453 -10.047 -9.373 7.957z"/>
    <path class="fil6" d="M416.746 349.754c0.038,0.141 3.918,14.16 14.036,15.441 9.436,1.194 24.716,-9.839 27.062,-11.586 0.119,0.148 0.24,0.294 0.365,0.437 -2.258,1.697 -16.128,11.806 -25.914,11.806 -0.542,0 -1.071,-0.031 -1.584,-0.096 -10.496,-1.327 -14.473,-15.71 -14.512,-15.855l0.547 -0.147z"/>
    <path class="fil14" d="M456.949 350.691l3.42 -5.379c0,0 0.868,0.128 0.523,1.504 -0.344,1.377 -1.164,2.378 -1.164,2.378 0,0 0.111,0.023 0.316,0.018 -0.112,0.253 -0.209,0.511 -0.298,0.768 -0.683,0.7 -1.345,1.419 -2.019,2.128 -0.226,-0.495 -0.486,-0.967 -0.778,-1.417z"/>
    <polygon class="fil14" points="757.301,40.365 742.879,60.827 747.838,62.516 761.543,52.566 760.923,45.648 "/>
    <path class="fil10" d="M760.354 30.609c-6.499,4.68 -1.441,44.764 -1.441,44.764l27.086 -2.906c0,0 -3.104,-42.82 -25.645,-41.858z"/>
    <path class="fil13" d="M763.759 30.736l-2.537 -3.714 -4.49 2.338 1.527 4.988c0.043,0.023 0.088,0.042 0.135,0.059 1.461,-1.603 3.327,-2.882 5.365,-3.671z"/>
    <path class="fil14" d="M760.711 18.05l1.25 6.899c-0.684,0.132 -0.912,0.954 -0.632,1.561 -0.035,0.172 -0.034,0.354 0.003,0.53 -0.979,1.119 -2.861,2.72 -5.743,2.839 -4.509,0.186 -3.861,-8.767 -3.861,-8.767l8.983 -3.062z"/>
    <path class="fil15" d="M764.08 22.662c-0.084,-0.507 0.348,-1.728 0.652,-2.144 1.946,-2.687 -0.6,-3.715 -1.492,-4.032 -0.986,-0.35 -1.183,-1.945 -2.497,-2.553 -2.006,-0.929 -3.317,0.829 -4.451,0.882 -1.132,0.053 -2.144,-1.232 -3.543,-0.097 -1.399,1.134 -0.935,2.333 -1.318,2.974 -0.383,0.642 -1.651,-0.585 -2.805,1.426 -1.753,3.06 3.092,3.058 3.092,3.058 0,0 2.757,0.451 5.779,-1.634 0.415,-0.286 0.98,-0.315 1.362,0.013 1.049,0.9 2.392,6.586 2.392,6.586l0.893 -1.182c0,0 2.326,-0.972 1.936,-3.297z"/>
    <path class="fil14" d="M761.623 23.828c-0.094,0.586 -0.646,0.986 -1.232,0.892 -0.587,-0.093 -0.986,-0.645 -0.893,-1.232 0.094,-0.586 0.646,-0.986 1.233,-0.892 0.586,0.094 0.985,0.645 0.892,1.232z"/>
    <path class="fil15" d="M808.046 117.241c0,0 2.067,2.23 3.361,7.312 0.286,1.119 -0.096,2.325 1.75,2.325l0 -6.168 -0.886 -5.129 0.886 0 0 -2.772c0,0 -4.53,-0.771 -5.111,0.847l0 3.585z"/>
    <path class="fil14" d="M804.79 116.696l3.256 0.545c0.7,-1.012 0.744,-2.34 0.113,-3.395l-0.113 -0.19 -3.256 -0.805 0 3.845z"/>
    <path class="fil15" d="M765.639 141.33c0,0 -0.015,3.46 -6.963,5.536 -1.427,0.427 -0.963,0.849 -1.231,1.448l7.998 0 3.131 -3.52 0.974 0.837 2.259 -2.219c0,0 -1.056,-3.21 -2.773,-3.238 -1.42,0.483 -3.395,1.156 -3.395,1.156z"/>
    <path class="fil14" d="M764.341 138.334l1.298 2.995c1.184,0.337 2.455,-0.048 3.251,-0.987l0.143 -0.169 -1.051 -3.08 -3.641 1.241z"/>
    <path class="fil15" d="M784.365 79.295c0,0 -0.301,10.255 -4.235,19.202 -1.212,2.76 0.386,5.92 3.336,6.538 14.179,2.968 22.183,7.738 22.183,7.738l0 4.876 -33.077 -4.526c-5.31,-0.726 -9.434,-4.99 -9.985,-10.321l-1.058 -10.232 22.836 -13.275z"/>
    <path class="fil1" d="M760.546 77.806c0,0 -11.433,21.443 -11.433,28.094 0,6.651 15.388,32.59 15.388,32.59l4.401 0c0,0 -0.78,-16.437 -3.757,-30.065 -0.585,-2.672 0.244,-5.471 2.239,-7.343 9.353,-8.776 17.65,-23.276 17.65,-23.276l-24.488 0z"/>
    <path class="fil5" d="M791.749 73.811l-6.725 15.127c0,0 -4.105,-3.175 -7.836,-4.294 -1.411,-0.423 -2.951,-0.129 -4.166,0.701 -15.802,10.791 -24.82,2.497 -24.82,2.497 0,0 -12.768,-7.519 -5.602,-27.148 7.64,-20.926 25.152,-11.687 25.152,-11.687 0,0 10.457,3.538 12.593,17.109 0.306,1.941 1.521,3.621 3.207,4.632 4.233,2.538 8.197,3.063 8.197,3.063z"/>
    <path class="fil9" d="M784.987 88.922l5.419 2.408c2.031,0.903 4.281,0.315 5.002,-1.305l4.095 -9.211c0.72,-1.622 -0.352,-3.687 -2.383,-4.59l-5.418 -2.408 -6.715 15.106z"/>
    <polygon class="fil4" points="795.831,89.072 798.77,89.131 801.316,83.402 799.397,81.05 "/>
    <path class="fil10" d="M757.711 75.358c-0.106,-2.099 1.322,-3.128 2.437,-3.565 0.625,-0.247 1.321,-0.222 1.933,0.051l3.3 1.467c-0.69,1.998 -2.005,3.643 -4.256,4.046 -1.53,0.274 -3.219,-0.621 -3.414,-1.999zm7.099 -7.58c-0.524,-0.217 -4.326,-2.803 -0.898,-4.344 0.358,-0.161 0.791,-0.156 1.125,0.049 1.368,0.839 1.44,3.336 1.276,5.008 -0.514,-0.218 -1.026,-0.439 -1.503,-0.713zm0.977 6.452c0.087,-0.193 0.168,-0.415 0.251,-0.627l21.464 9.541 0.461 -1.033 -21.547 -9.578c0.244,-0.773 0.452,-1.603 0.602,-2.46 0.41,0.167 0.811,0.332 1.181,0.499l7.074 3.217c4.545,2.067 9.089,4.133 13.632,6.199l0.461 -1.033c-7.394,-3.362 -14.787,-6.724 -22.18,-10.086 0.156,-1.496 0.106,-2.967 -0.315,-4.138 -1.798,-5.003 -8.106,-0.584 -4.111,3.079 0.899,0.824 2.162,1.402 3.406,1.915 -0.103,0.765 -0.287,1.751 -0.506,2.617 0,0 -1.974,-0.9 -3.256,-1.44 -0.725,-0.305 -1.543,-0.408 -2.288,-0.159 -4.123,1.372 -4.512,7.972 0.792,7.576 2.285,-0.171 4.001,-2.126 4.879,-4.089z"/>
    <path class="fil14" d="M778.673 44.036l-9.059 5.602 6.527 7.482 0.934 21.275 3.518 -0.683c0,0 5.512,-16.43 4.413,-22.088 -1.099,-5.659 -6.333,-11.588 -6.333,-11.588z"/>
    <path class="fil14" d="M777.074 78.395l0.032 4.224c0.004,0.678 0.203,1.339 0.577,1.904 0.71,1.067 1.967,2.631 3.129,2.405 1.74,-0.338 3.785,-4.348 3.785,-4.348l-4.003 -4.869 -3.52 0.684z"/>
    <path class="fil15" d="M801.605 445.571c0,0 7.72,7.017 25.321,11.412 3.876,0.967 8.054,-0.324 8.054,5.941l-21.361 0 -17.764 -3.012 0 3.012 -9.596 0c0,0 -2.672,-15.381 2.933,-17.353l12.413 0z"/>
    <path class="fil14" d="M800.525 434.522l1.08 11.049c-3.501,2.378 -8.099,2.529 -11.756,0.386l-0.657 -0.386 -1.994 -11.049 13.327 0z"/>
    <path class="fil15" d="M892.671 445.571c0,0 7.72,7.017 25.322,11.412 3.875,0.967 8.054,-0.324 8.054,5.941l-21.361 0 -17.765 -3.012 0 3.012 -9.595 0c0,0 -2.673,-15.381 2.932,-17.353l12.413 0z"/>
    <path class="fil14" d="M888.113 434.522l4.559 11.049c-3.502,2.378 -8.099,2.529 -11.755,0.386l-0.659 -0.386 -7.209 -11.049 15.064 0z"/>
    <polygon class="fil5" points="578.958,462.925 613.202,345.858 608.215,344.243 573.5,462.925 "/>
    <polygon class="fil5" points="739.379,462.925 704.663,344.243 699.678,345.858 733.921,462.925 "/>
    <polygon class="fil13" points="610.71,145.654 604.641,165.462 583.947,157.697 600.425,129.967 "/>
    <path class="fil14" d="M615.5 151.759c2.392,0.93 4.733,1.499 6.273,1.048 10.998,-7.047 14.487,-37.057 14.487,-37.057l-8.969 -9.179 -17.488 2.807 -8.333 17.585c-2.225,4.695 -1.861,10.251 0.979,14.963 3.352,4.311 7.843,7.807 13.051,9.833z"/>
    <path class="fil15" d="M607.709 120.451c2.028,-2.69 4.556,-9.801 7.409,-8.01 2.082,1.308 9.61,4.849 12.189,5.935 6.143,2.587 18.107,4.794 22.044,-4.555 1.97,-4.674 -0.868,-10.613 -3.236,-13.02 -2.323,-2.364 -5.528,-3.647 -8.836,-3.855 -7.762,-0.483 -18.931,0.956 -22.206,-1.269 -5.511,-3.745 -13.004,-2.744 -15.072,2.407 -2.211,5.502 -2.82,14.921 -2.332,21.273 0.282,3.675 1.219,7.26 2.756,10.611l7.284 -9.517z"/>
    <path class="fil14" d="M601.196 118.504c1.878,-0.632 4.344,0.676 5.508,2.922 1.164,2.246 0.585,4.58 -1.293,5.212 -1.878,0.633 -4.345,-0.676 -5.509,-2.922 -1.164,-2.245 -0.585,-4.58 1.294,-5.212z"/>
    <path class="fil5" d="M571.239 173.54l-64.035 29.855c0,0 49.558,142.864 136.501,157.071 86.943,14.206 138.854,-25.907 143.494,-28.118 -124.802,-35.056 -215.96,-158.808 -215.96,-158.808z"/>
    <path class="fil10" d="M571.239 173.54l-64.035 29.855c0,0 56.514,128.951 143.457,143.158 86.944,14.207 133.529,-12.187 136.538,-14.205 -130.018,-35.925 -215.96,-158.808 -215.96,-158.808z"/>
    <path class="fil15" d="M671.527 271.21l96.431 -1.499c8.773,-0.137 16.233,6.376 17.281,15.087l16.661 152.763 -14.449 0c0,0 -34.41,-73.128 -28.797,-111.25 5.613,-38.123 -133.994,-31.916 -133.994,-31.916l46.867 -23.185z"/>
    <path class="fil9" d="M584.571 155.155c-57.872,59.109 16.235,161.845 16.235,161.845l70.721 -45.79c-26.772,-47.118 -28.416,-50.041 -65.921,-113.388 -4.462,-7.536 -14.909,-8.926 -21.035,-2.667z"/>
    <path class="fil14" d="M717.301 237.891c0,-1.302 -0.851,-2.451 -2.097,-2.829l-12.085 -3.668c-2.99,-0.907 -6.209,-0.68 -9.042,0.639l-10.968 5.107 -1.537 0.239 0 10.756c2.183,-1.102 3.458,-1.775 3.458,-1.775l6.915 -3.457c0,0 17.287,11.525 21.514,-1.244 3.074,11.808 6.339,10.081 6.339,10.081l-2.497 -13.849z"/>
    <path class="fil9" d="M589.8 167.201c-31.591,0 -29.449,70.432 -26.131,104.082 1,10.148 10.31,17.429 20.378,15.807 46.422,-7.487 103.13,-40.224 103.13,-40.224l-4.058 -9.854 -82.313 16.229c0,0 29.568,-86.04 -11.006,-86.04z"/>
    <path class="fil4" d="M683.651 236.022l-81.546 16.078c2.08,-6.359 9.909,-31.715 10.001,-53.236 -0.593,0.375 -1.197,0.735 -1.81,1.082 -0.449,23.915 -10.173,52.608 -10.312,53.014l-0.49 1.426 83.093 -16.383 3.494 8.485c-6.485,3.661 -59.113,32.8 -102.172,39.744 -4.588,0.735 -9.158,-0.419 -12.855,-3.269 -3.741,-2.882 -6.056,-7.06 -6.52,-11.764 -0.874,-8.869 -2.389,-28.13 -1.485,-47.637 -0.575,0.183 -1.154,0.356 -1.736,0.517 -0.87,19.447 0.621,38.463 1.49,47.289 0.504,5.112 3.124,9.842 7.189,12.972 3.279,2.524 7.175,3.847 11.208,3.847 0.989,0 1.987,-0.079 2.986,-0.241 46.047,-7.424 102.857,-39.999 103.425,-40.328l0.659 -0.379 -4.619 -11.217z"/>
    <path class="fil1" d="M600.806 317c0,0 15.474,34.198 80.575,34.198 65.099,0 109.548,-23.185 109.548,-23.185 0,0 19.372,49.268 84.021,109.549l15.466 0 -65.394 -135.642c-5.915,-11.949 -18.381,-19.227 -31.694,-18.501l-153.59 8.373 -38.932 25.208z"/>
    <polygon class="fil6" points="593.232,142.072 607.9,154.826 606.858,159.936 585.686,154.22 "/>
    <polygon class="fil5" points="581.191,448.919 579.282,446.012 707.089,362.051 708.997,364.958 "/>
    <polygon class="fil5" points="732.737,448.919 734.646,446.012 606.839,362.051 604.93,364.958 "/>
    <path class="fil15" d="M881.451 228.299c0,0 -1.207,1.67 -6.896,3.119 -1.252,0.318 -2.601,0.536 -2.601,2.602l5.614 0 5.742 -0.993 0 0.993 3.101 0c0,0 0.864,-5.071 -0.948,-5.721l-4.012 0z"/>
    <path class="fil14" d="M881.157 224.656l0.293 3.643c1.132,0.784 2.618,0.834 3.8,0.127l0.212 -0.127 0 -3.643 -4.305 0z"/>
    <path class="fil15" d="M903.071 228.299c0,0 -1.207,1.67 -6.895,3.119 -1.252,0.318 -2.603,0.536 -2.603,2.602l5.615 0 5.741 -0.993 0 0.993 3.102 0c0,0 0.863,-5.071 -0.949,-5.721l-4.011 0z"/>
    <path class="fil14" d="M902.776 224.656l0.295 3.643c1.131,0.784 2.617,0.834 3.799,0.127l0.212 -0.127 0 -3.643 -4.306 0z"/>
    <path class="fil3" d="M880.015 155.424c-5.058,26.85 0,70.173 0,70.173l6.227 0 6.162 -70.173c0,0 -12.389,-4.906 -12.389,0z"/>
    <path class="fil12" d="M881.212 155.409c0,0 5.835,24.044 9.951,36.058 4.116,12.014 10.667,34.13 10.667,34.13l6.407 0c0,0 -8.898,-51.628 -6.863,-70.188l-20.162 0z"/>
    <path class="fil9" d="M880.817 119.451c0,0 -6.344,14.792 -7.953,14.792 -1.288,0 0.483,-12.079 0.483,-12.079l-5.313 0c0,0 -6.682,20.703 -1.369,24.486 5.313,3.784 16.985,-10.706 16.985,-10.706l-2.833 -16.493z"/>
    <path class="fil14" d="M899.732 157.287l-1.922 4.753c-0.926,1.868 -4.328,1.915 -6.588,1.322 -0.338,-0.09 -0.458,-0.511 -0.221,-0.77 1.24,-1.361 4.46,-4.848 5.576,-5.629l3.155 0.324z"/>
    <path class="fil9" d="M883.65 116.396c0,0 -3.313,2.247 -3.313,4.823l0 34.19 19.412 0 0 -31.966c0,0 -0.398,-7.107 -7.345,-7.107 -6.948,0 -8.754,0.06 -8.754,0.06z"/>
    <polygon class="fil4" points="880.659,155.424 880.659,124.717 880.015,124.738 880.015,155.424 "/>
    <path class="fil13" d="M890.501 107.694l0 8.932c0,0 -1.485,2.039 -4.167,2.039 -2.684,0 -2.684,-1.935 -2.684,-1.935l0 -5.724 3.971 -1.035 2.88 -2.277z"/>
    <path class="fil14" d="M883.308 112.703c-0.826,-0.025 -1.591,-0.16 -1.993,-0.518 -2.381,-3.797 0.332,-14.031 0.332,-14.031l8.647 1.55 0.275 6.858c0.074,1.83 -0.729,3.587 -2.16,4.731 -1.533,0.942 -3.303,1.464 -5.101,1.41z"/>
    <path class="fil15" d="M886.225 99.883c0,0 -2.869,0.537 -5.888,0 -3.019,-0.537 -1.087,-3.864 -1.087,-3.864 0,0 2.234,1.021 6.205,0.433 2.681,-0.395 3.401,-0.915 5.118,0 2.335,1.246 1.77,5.465 1.77,5.465l-1.287 8.929 -0.483 0c0,0 -0.118,-5.31 -0.118,-7.116 -0.504,-0.824 -1.052,-0.824 -1.473,-0.618 -0.457,0.223 -0.717,0.718 -0.717,1.227l0 9.269c0,0 -5.903,2.545 -7.405,2.084 -1.503,-0.462 -0.499,-7.33 -0.499,-7.33 0,0 1.733,-0.752 3.074,0.751 1.329,1.488 2.944,-0.059 2.944,-0.059l-0.154 -9.171z"/>
    <path class="fil14" d="M869.054 122.164l0.187 -1.02c0.415,-2.26 2.574,-5.069 4.748,-5.806l2.256 0 -0.698 4.819 -3.184 2.007 -3.309 0z"/>
    <path class="fil14" d="M889.731 102.878c-0.663,-0.054 -1.299,0.581 -1.423,1.419 -0.123,0.838 0.316,1.562 0.979,1.617 0.664,0.055 1.301,-0.58 1.423,-1.417 0.123,-0.839 -0.315,-1.563 -0.979,-1.619z"/>
    <path class="fil14" d="M874.617 119.621l-4.394 2.543c0,0 2.757,-0.028 2.802,0l4.65 -3.892c0,0 -0.337,-0.678 -1.391,-0.105 -1.054,0.574 -1.667,1.454 -1.667,1.454z"/>
    <path class="fil9" d="M897.682 118.475c0,0 10.975,12.192 10.975,19.499 0,7.307 -8.908,20.186 -8.908,20.186l-4.4 -1.287c0,0 3.971,-15.938 3.971,-20.178 0,-4.239 -8.157,-10.455 -8.157,-10.455l6.519 -7.765z"/>
    <path class="fil4" d="M898.998 136.695c0,3.651 -3.231,16.995 -3.989,20.105 0.222,0.059 0.314,0.076 0.651,0.163 0.933,-3.84 3.982,-16.68 3.982,-20.268 0,-4.348 -7.947,-10.453 -8.284,-10.711l-0.391 0.512c0.081,0.061 8.031,6.167 8.031,10.199z"/>
    <path class="fil16" d="M877.556 111.641c0,0 0.906,4.723 -2.009,8.515 -0.181,0.234 -0.489,0.412 -0.821,0.457 -0.678,0.09 -1.153,-0.148 -1.518,-0.252 -0.539,-0.153 -0.796,-0.429 -0.92,-0.659 -0.104,-0.196 -0.074,-0.429 0.065,-0.635 0.59,-0.882 2.419,-3.911 1.586,-6.591 1.557,-1.257 3.617,-0.835 3.617,-0.835z"/>
    <path class="fil16" d="M872.804 120.197c-0.337,-0.168 -0.401,-0.282 -0.516,-0.494 -0.103,-0.196 -0.074,-0.429 0.065,-0.636 0.591,-0.882 2.419,-3.911 1.587,-6.59 0.55,-0.445 1.161,-0.677 1.724,-0.795 0.093,2.944 -0.538,4.913 -2.86,8.515z"/>
    <path class="fil16" d="M874.951 115.535c-0.138,0.676 -0.467,1.18 -0.732,1.126 -0.266,-0.055 -0.368,-0.647 -0.23,-1.323 0.139,-0.677 0.467,-1.18 0.733,-1.126 0.266,0.055 0.369,0.647 0.229,1.323z"/>
    <polygon class="fil16" points="874.775,114.232 874.495,114.166 874.516,114.307 874.703,114.38 "/>
    <polygon class="fil17" points="874.282,116.662 873.944,116.596 874.329,116.54 "/>
    <path class="fil10" d="M874.726 115.489c-0.14,0.675 -0.468,1.18 -0.734,1.126 -0.266,-0.055 -0.368,-0.647 -0.23,-1.323 0.139,-0.677 0.468,-1.18 0.733,-1.126 0.266,0.055 0.369,0.647 0.231,1.323z"/>
    <path class="fil10" d="M878.742 107.661l0.519 0c0.995,0 1.809,0.774 1.809,1.722l0 1.369c0,0.947 -0.814,1.721 -1.809,1.721l-0.519 0 0 -4.812z"/>
    <path class="fil15" d="M862.837 109.015c0,3.735 0.859,6.762 1.917,6.762 1.059,0 1.918,-3.027 1.918,-6.762 0,-3.734 -0.859,-6.76 -1.918,-6.76 -1.058,0 -1.917,3.026 -1.917,6.76z"/>
    <polygon class="fil6" points="866.756,106.524 865.242,107.51 865.242,109.698 866.803,111.115 867.343,108.271 "/>
    <path class="fil5" d="M866.672 109.015c0,-3.137 -0.607,-5.768 -1.429,-6.531 0.002,-0.001 0.003,-0.003 0.004,-0.004 6.351,4.582 13.797,5.229 13.797,5.229l0 4.772c0,0 -10.069,-0.565 -13.797,3.07 -0.002,0 -0.003,-0.002 -0.005,-0.002 0.823,-0.761 1.43,-3.393 1.43,-6.534z"/>
    <path class="fil10" d="M865.034 108.599c0,0.607 0.093,1.098 0.207,1.098 0.115,0 0.207,-0.491 0.207,-1.098 0,-0.608 -0.092,-1.099 -0.207,-1.099 -0.114,0 -0.207,0.491 -0.207,1.099z"/>
    <path class="fil14" d="M871.495 118.665c0.155,0.057 0.699,0.4 2.453,0.4 1.278,0 1.854,-1.57 2.072,-2.425 0.077,-0.3 0.144,-0.726 -0.231,-0.919l-2.052 -0.284 -2.242 3.228z"/>
    <path class="fil18" d="M855.516 101.89c-0.13,0.128 -0.339,0.127 -0.467,-0.003l-3.132 -3.166c-0.127,-0.13 -0.126,-0.338 0.004,-0.466 0.129,-0.128 0.337,-0.127 0.466,0.003l3.131 3.165c0.128,0.13 0.127,0.338 -0.002,0.467z"/>
    <path class="fil18" d="M855.441 115.789c-0.129,-0.13 -0.337,-0.131 -0.468,-0.002l-3.165 3.131c-0.129,0.129 -0.13,0.336 -0.002,0.467 0.128,0.129 0.336,0.131 0.465,0.002l3.166 -3.132c0.13,-0.128 0.131,-0.337 0.004,-0.466z"/>
    <path class="fil18" d="M854.317 109.83c-0.001,0.181 -0.15,0.328 -0.332,0.327l-4.453 -0.023c-0.182,-0.002 -0.328,-0.15 -0.328,-0.332 0.001,-0.183 0.15,-0.33 0.332,-0.329l4.453 0.025c0.183,0.001 0.329,0.149 0.328,0.332z"/>
    <path class="fil19" d="M1004.851 454.715l-10.586 -0.012c-1.405,0.147 -2.976,0.547 -3.238,1.765 0,0 -0.185,0.809 -0.153,1.613 0.374,0.439 14.41,-0.058 14.41,-0.058l0.062 -0.051c1.486,-1.79 -0.495,-3.257 -0.495,-3.257z"/>
    <polygon class="fil15" points="990.873,458.082 1005.285,458.022 1005.159,458.583 990.852,458.583 "/>
    <polygon class="fil6" points="1000.662,454.703 999.708,454.71 1000.005,456.006 1000.93,456.006 "/>
    <polygon class="fil6" points="998.617,454.703 997.664,454.71 997.961,456.006 998.885,456.006 "/>
    <path class="fil14" d="M1005.578 451.19l-0.727 3.526c-0.849,0.43 -1.953,0.455 -2.838,0.066l-0.16 -0.07 -0.51 -3.522 4.235 0z"/>
    <path class="fil15" d="M1029.592 454.715l-10.586 -0.012c-1.406,0.147 -2.976,0.547 -3.24,1.765 0,0 -0.183,0.809 -0.152,1.613 0.374,0.439 14.41,-0.058 14.41,-0.058l0.062 -0.051c1.487,-1.79 -0.494,-3.257 -0.494,-3.257z"/>
    <polygon class="fil15" points="1015.614,458.082 1030.024,458.022 1029.9,458.583 1015.593,458.583 "/>
    <polygon class="fil6" points="1025.402,454.703 1024.448,454.71 1024.746,456.006 1025.67,456.006 "/>
    <polygon class="fil6" points="1023.358,454.703 1022.404,454.71 1022.701,456.006 1023.626,456.006 "/>
    <path class="fil14" d="M1029.132 451.19l0.46 3.526c-0.85,0.43 -1.954,0.455 -2.838,0.066l-0.162 -0.07 -1.695 -3.522 4.235 0z"/>
    <path class="fil14" d="M1013.335 332.616l8.718 5.684 -2.691 6.889c-0.038,0.097 -0.089,0.189 -0.132,0.281 -0.192,-0.01 -0.382,-0.021 -0.576,-0.021 -0.032,0 -0.064,0.002 -0.095,0.003 -0.03,0 -0.06,-0.003 -0.09,-0.003 -2.334,0 -4.34,1.434 -5.557,3.367 -1.411,-0.107 -2.814,-0.45 -4.115,-1.068 -0.886,-0.422 -1.66,-0.924 -1.938,-1.469 -0.934,-4.886 6.476,-13.663 6.476,-13.663z"/>
    <path class="fil14" d="M1002.247 334.398c0,0 -1.067,10.118 1.082,16.56 -0.999,0.868 -4.662,4.795 -5.815,-0.296 -1.151,-5.089 1.293,-18.046 1.293,-18.046l3.44 1.782z"/>
    <polygon class="fil15" points="1007.478,333.681 1009.528,335.002 1008.797,336.532 1006.596,335.562 "/>
    <path class="fil15" d="M1008.686 335.522c-0.206,0.469 -0.221,0.915 -0.033,0.997 0.187,0.082 0.505,-0.231 0.711,-0.698 0.205,-0.468 0.22,-0.914 0.032,-0.997 -0.188,-0.083 -0.506,0.231 -0.71,0.698z"/>
    <path class="fil1" d="M982.729 326.219c-0.001,-0.02 -0.005,-0.038 -0.007,-0.057 0.386,-0.879 1.066,-2.276 1.983,-3.561 1.482,-2.074 1.906,-3.111 1.906,-3.111l21.178 13.862 -1.37 2.587 -23.692 -8.754c0.023,-0.323 0.028,-0.647 0.002,-0.966z"/>
    <polygon class="fil13" points="1015.259,348.82 1016.021,353.576 1009.281,353.576 1008.797,347.748 "/>
    <path class="fil14" d="M997.854 360.623c0,0 -7.96,-2.535 -10.456,-5.943 -2.494,-3.409 1.728,-22.064 1.728,-22.064l-0.546 -3.357c-0.307,-1.89 1.143,-3.61 3.057,-3.627l2.127 -0.019c0.885,-0.007 1.482,0.902 1.123,1.712l-2.797 6.293c0,0 -2.099,14.129 0.841,15.202 3.506,1.249 7.475,1.55 7.475,1.55l-2.552 10.253z"/>
    <path class="fil19" d="M1012.809 348.82l2.047 -4.541 -1.33 -0.837c-0.982,-0.616 -1.412,-1.827 -1.039,-2.926l1.459 -4.279c0,0 -4.147,-0.509 -4.023,-4.373 0,-1.99 2.739,-2.001 2.739,-2.001 0,0 0.818,1.78 3.359,1.99 1.09,-0.137 4.084,0.265 6.104,3.791 1.359,2.37 0.763,6.085 -0.42,8.873 -1.059,2.496 -3.766,3.892 -6.446,4.303l-2.45 0z"/>
    <path class="fil15" d="M1020.903 386.97c0,0 -0.423,9.682 -2.517,20.178 -0.617,3.091 -0.385,6.292 0.621,9.28 4.754,14.12 11.417,35.354 11.417,35.354l-5.928 0c0,0 -13.43,-25.095 -16.892,-37.544 -3.46,-12.448 -4.052,-16.399 -4.052,-16.399l4.118 -10.869 13.233 0z"/>
    <path class="fil14" d="M1015.959 342.163c0.244,0.715 -0.25,1.663 -1.103,2.115 -0.853,0.453 -1.741,0.24 -1.984,-0.475 -0.245,-0.717 0.249,-1.662 1.101,-2.115 0.852,-0.452 1.74,-0.24 1.986,0.475z"/>
    <path class="fil9" d="M1001.575 386.97l19.328 0 0 -24.798c0,-5.432 -4.135,-9.971 -9.543,-10.475l-13.441 -1.628c0,0 -1.581,2.419 -5.984,8.041 5.293,3.271 11.418,4.777 11.418,4.777l-1.778 24.083z"/>
    <path class="fil1" d="M1020.903 386.97c0,0 -2.73,9.88 -12.802,20.953 -1.682,1.672 -4.104,5.15 -3.76,10.07l2.078 33.789 -6.013 0c0,0 -7.329,-28.059 -5.747,-41.891 1.58,-13.832 6.916,-22.921 6.916,-22.921l19.328 0z"/>
    <path class="fil9" d="M985.973 323.921c-1.039,2.156 -2.45,3.631 -3.15,3.294 -0.7,-0.339 -0.425,-2.361 0.614,-4.517 1.04,-2.156 2.451,-3.631 3.151,-3.293 0.7,0.337 0.426,2.36 -0.615,4.516z"/>
    <path class="fil14" d="M1003.082 330.27l-0.179 0.086c-0.63,0.301 -1.353,0.347 -2.016,0.125l-0.12 -0.039c-1.091,-0.363 -1.942,-1.228 -2.292,-2.323 -0.154,-0.488 0.274,-0.962 0.774,-0.856l1.338 0.281c0.522,0.109 0.979,0.42 1.272,0.865l1.223 1.861z"/>
    <polygon class="fil13" points="539.994,354.318 537.421,360.068 533.232,356.293 536.187,347.918 "/>
    <path class="fil14" d="M541.483 354.683c0.703,0.094 1.37,0.086 1.759,-0.161 2.548,-2.885 1.674,-11.383 1.674,-11.383l-2.982 -2.569 -4.559 2.127 -1.188 4.671c-0.317,1.539 0.118,4.242 1.171,5.41 1.167,1.012 2.594,1.702 4.125,1.905z"/>
    <path class="fil14" d="M542.169 385.162c0,0 1.03,1.495 3.089,2.202 2.06,0.708 17.399,-2.51 17.399,-2.51l3.081 0.323c1.612,0.438 3.321,0.35 4.878,-0.253l4.512 -1.744 -26.464 -0.551 -10.13 -12.582 3.635 15.115z"/>
    <path class="fil10" d="M533.231 356.293c0,0 -6.114,7.831 -7.542,12.982 -1.428,5.15 -1.944,19.345 -1.944,19.345l12.868 0c0,0 3.694,-6.697 6.562,-12.772 0.86,-1.824 0.895,-3.929 0.08,-5.774 -2.1,-4.757 -5.254,-11.302 -5.254,-11.302l-4.77 -2.479z"/>
    <path class="fil14" d="M539.764 474.298l1.02 2.656c0.252,0.729 0.74,1.348 1.39,1.764 0.719,0.46 1.842,1.1 3.513,1.594 -2.045,1.747 -5.299,-0.076 -7.161,-1.365 -0.907,-0.629 -1.55,-1.567 -1.82,-2.638l-0.426 -2.011 3.484 0z"/>
    <path class="fil1" d="M536.502 475.679c0,0 -1.383,1.088 -1.131,2.473 0.254,1.386 0.613,4.632 0.613,4.632l1.423 0 -0.045 -3.028c0.005,-0.197 3.052,3.028 3.568,3.028l7.526 0c0,0 0.5,-2.042 -3.92,-2.698 -4.42,-0.656 -8.034,-4.407 -8.034,-4.407z"/>
    <path class="fil14" d="M525.133 474.298l1.02 2.656c0.252,0.729 0.74,1.348 1.391,1.764 0.718,0.46 1.841,1.1 3.514,1.594 -2.046,1.747 -5.3,-0.076 -7.163,-1.365 -0.907,-0.629 -1.55,-1.567 -1.82,-2.638l-0.426 -2.011 3.484 0z"/>
    <path class="fil1" d="M521.871 475.679c0,0 -1.383,1.088 -1.129,2.473 0.252,1.386 0.612,4.632 0.612,4.632l1.422 0 -0.044 -3.028c0.005,-0.197 3.051,3.028 3.567,3.028l7.526 0c0,0 0.5,-2.042 -3.92,-2.698 -4.419,-0.656 -8.034,-4.407 -8.034,-4.407z"/>
    <path class="fil15" d="M536.613 388.844c0,0 6.384,9.571 0.92,47.724 0.858,14.419 2.461,38.152 2.461,38.152l-3.624 0c0,0 -10.047,-25.277 -6.676,-37.869 0.801,-12.471 -2.288,-48.232 -2.288,-48.232l9.207 0.225z"/>
    <path class="fil1" d="M523.746 388.619c0,0 -6.684,5.376 -6.684,13.358 0,6.263 3.018,19.234 4.749,27.724 0.628,3.083 -0.007,6.266 -0.874,9.29 -3.535,12.314 0.76,35.729 0.76,35.729l3.605 0c0,0 0.198,-12.043 5.128,-39.041 5.664,-31.01 6.183,-47.06 6.183,-47.06l-12.867 0z"/>
    <path class="fil14" d="M527.405 370.649c0,0 6.713,15.629 9.94,15.629 3.228,0 21.091,-7.641 21.091,-7.641l-0.474 -2.667 -18.241 3.09c0,0 -1.618,-4.311 -2.737,-9.249 -0.444,-1.96 -1.961,-3.556 -3.934,-3.93 -4.314,-0.814 -5.645,4.768 -5.645,4.768z"/>
    <path class="fil15" d="M536.315 345.843c0,0 1.99,1.204 8.085,-2.704 0.935,0.244 -0.556,-8.54 -8.442,-5.961 -5.519,1.806 -5.255,7.15 -5,10.106 0.275,3.194 -1.388,5.301 -3.583,7.636 -1.841,1.961 -1.813,5.563 -3.04,7.501 -1.509,2.385 -3.11,2.246 -4.307,4.666 -1.253,2.532 -1.425,5.628 0.254,7.902 0.952,1.292 3.176,4.41 6.695,3.298 1.974,-0.623 2.506,-4.069 2.592,-6.974 0.078,-2.585 1.33,-4.988 3.353,-6.599 1.898,-1.511 3.97,-3.58 4.524,-5.74 1.088,-4.236 -1.131,-13.131 -1.131,-13.131z"/>
    <path class="fil14" d="M535.6 346.013c0.47,-0.326 1.216,-0.127 1.667,0.444 0.45,0.57 0.436,1.297 -0.035,1.623 -0.468,0.326 -1.215,0.126 -1.666,-0.445 -0.451,-0.57 -0.436,-1.297 0.034,-1.622z"/>
    <path class="fil14" d="M567.955 377.339c0.045,-0.382 -0.167,-0.75 -0.52,-0.904l-3.431 -1.49c-0.849,-0.369 -1.804,-0.411 -2.682,-0.12l-3.402 1.13 -0.458 0.017 -0.367 3.165c0.68,-0.249 1.077,-0.404 1.077,-0.404l2.153 -0.782c0,0 4.694,3.979 6.372,0.365 0.502,3.58 1.522,3.182 1.522,3.182l-0.264 -4.159z"/>
    <path class="fil15" d="M533.289 342.767c0.676,2.445 4.151,3.618 7.762,2.621 3.612,-0.999 5.571,-3.71 5.316,-6.233 -0.335,-3.315 -4.15,-3.619 -7.762,-2.622 -3.611,0.998 -5.991,3.788 -5.316,6.234z"/>
    <path class="fil4" d="M569.017 385.284c0.622,0 1.232,-0.038 1.835,-0.094 4.311,2.65 11.534,6.419 20.689,8.652 13.901,3.39 35.216,3.805 57.815,-13.463 43.536,-33.266 45.473,-105.188 45.487,-105.91l2.16 0.042c-0.015,0.733 -1.963,73.682 -46.336,107.586 -15.84,12.103 -31.09,15.768 -43.751,15.768 -5.97,0 -11.366,-0.816 -15.976,-1.946 -11.912,-2.922 -20.49,-8.23 -24.054,-10.716 0.71,0.052 1.421,0.081 2.131,0.081z"/>
    <path class="fil4" d="M730.568 269.83l33.071 -68.066c1.548,0.796 3.093,1.596 4.634,2.4l-34.439 70.883 -75.717 0 0 -5.217 72.451 0z"/>
    <polygon class="fil20" points="554.83,383.18 575.852,383.18 585.21,365.385 583.843,364.666 574.919,381.635 554.83,381.635 "/>
    <path class="fil4" d="M693.467 279.136l4.681 0c0.841,0 1.53,-0.69 1.53,-1.53l0 -3.601c0,-0.842 -0.689,-1.532 -1.531,-1.532l-4.68 0c-0.841,0 -1.53,0.69 -1.53,1.532l0 3.6c0,0.841 0.689,1.531 1.53,1.531z"/>
    <polygon class="fil14" points="730.643,365.179 724.22,377.279 731.298,376.938 731.795,364.79 "/>
    <polygon class="fil6" points="740.731,359.817 734.798,359.809 732.338,398.163 742.972,398.163 "/>
    <path class="fil1" d="M751.625 472.407c0,0 1.466,1.152 1.197,2.623 -0.268,1.468 -0.648,4.91 -0.648,4.91l-1.509 0 0.046 -3.21c-0.004,-0.21 -3.233,3.21 -3.781,3.21l-7.978 0c0,0 -0.531,-2.165 4.155,-2.861 4.685,-0.696 8.518,-4.672 8.518,-4.672z"/>
    <path class="fil14" d="M748.167 470.943l-1.082 2.815c-0.266,0.773 -0.786,1.43 -1.473,1.871 -0.761,0.487 -1.953,1.167 -3.726,1.69 2.168,1.852 5.62,-0.082 7.593,-1.448 0.962,-0.667 1.643,-1.662 1.929,-2.795l0.453 -2.133 -3.694 0z"/>
    <path class="fil1" d="M736.424 472.407c0,0 1.466,1.152 1.197,2.623 -0.268,1.468 -0.648,4.91 -0.648,4.91l-1.509 0 0.046 -3.21c-0.004,-0.21 -3.233,3.21 -3.781,3.21l-7.978 0c0,0 -0.531,-2.165 4.155,-2.861 4.685,-0.696 8.518,-4.672 8.518,-4.672z"/>
    <path class="fil14" d="M732.966 470.943l-1.082 2.815c-0.266,0.773 -0.785,1.43 -1.473,1.871 -0.761,0.487 -1.953,1.167 -3.725,1.69 2.167,1.852 5.619,-0.082 7.593,-1.448 0.961,-0.667 1.642,-1.662 1.928,-2.795l0.453 -2.133 -3.694 0z"/>
    <path class="fil15" d="M745.282 398.163c0,0 0.997,5.733 -4.736,33.909 4.641,14.684 -2.791,39.254 -2.791,39.254l-5.416 0 -3.689 -73.163 16.632 0z"/>
    <path class="fil9" d="M735.448 359.817l-1.924 46.535 -6.378 -2.729c0,0 2.875,-8.736 2.602,-20.872 0.974,-8.777 -4.004,-4.152 2.095,-21.05 2.272,-1.892 3.605,-1.884 3.605,-1.884z"/>
    <path class="fil13" d="M734.616 355.011l0.747 3.924c0.329,1.725 2.291,2.581 3.778,1.648l2.618 -1.64 -4.673 -10.563 -2.47 6.631z"/>
    <path class="fil1" d="M750.495 398.163c0,0 7.098,5.733 1.364,33.909 4.642,14.684 0.547,39.254 0.547,39.254l-4.863 0 -13.68 -73.163 16.632 0z"/>
    <path class="fil9" d="M740.731 355.874c0,0 5.991,3.367 7.853,6.372 1.774,2.866 2.388,9.388 2.559,15.194 0.234,7.971 4.084,28.913 4.084,28.913l-16.059 0 -0.401 -45.591 1.964 -4.888z"/>
    <path class="fil15" d="M728.908 343.242c3.632,-0.922 7.127,2.803 7.127,2.803l2.731 14.718 4.204 -6.477c0,0 0.24,-8.802 -3.822,-14.629 -2.91,-3.529 -8.494,-2.516 -11.316,0.916 -1.374,1.669 -1.66,3.975 -1.527,6.095 0.178,2.848 0.986,19.192 0.986,19.192l8.321 -6.166c0,0 -0.2,-1.661 -0.996,-4.683 -1.37,-5.201 -8.148,-11.151 -5.708,-11.769z"/>
    <path class="fil14" d="M737.122 345.82c-0.536,-0.218 -1.231,0.144 -1.55,0.808 -0.319,0.664 -0.143,1.38 0.394,1.599 0.535,0.218 1.229,-0.144 1.549,-0.809 0.32,-0.666 0.144,-1.381 -0.393,-1.598z"/>
    <path class="fil14" d="M733.224 355.701c-0.675,0.248 -1.337,0.388 -1.778,0.231 -3.157,-2.291 -4.299,-11.436 -4.299,-11.436l2.502 -2.658 4.982 1.095 2.455 5.448c0.656,1.453 0.58,3.133 -0.204,4.522 -0.931,1.259 -2.188,2.256 -3.658,2.798z"/>
    <path class="fil15" d="M728.075 343.052c0.26,2.766 7.959,2.993 7.959,2.993l0.401 -3.745 -4.489 -2.471 -3.553 2.138c0,0 -0.358,0.622 -0.318,1.085z"/>
    <path class="fil15" d="M728.243 343.589c0.255,1.029 -0.787,2.823 -0.787,2.823l-0.612 -1.106 0.017 -0.959 0.604 -0.747c0,0 0.523,-1.041 0.778,-0.011z"/>
    <path class="fil14" d="M746.946 362.247c7.771,0.907 4.1,20.954 2.431,29.186 -0.41,2.025 -2.482,3.261 -4.454,2.64 -6.761,-2.133 -16.64,-10.988 -16.64,-10.988l1.567 -1.971 13.122 3.063c0,0 -5.035,-22.981 3.974,-21.93z"/>
    <path class="fil6" d="M731.399 376.406l2.538 15.707c0.074,0.455 -0.277,0.867 -0.739,0.867l-10.046 0c-0.369,0 -0.682,-0.267 -0.739,-0.631l-2.492 -15.706c-0.072,-0.455 0.278,-0.865 0.738,-0.865l10.001 0c0.368,0 0.68,0.265 0.739,0.628z"/>
    <path class="fil14" d="M720.249 383.361c-0.062,-0.553 -0.01,-0.898 0.175,-2.041 0.239,-1.486 0.177,-3.813 1.694,-2.653 1.434,1.799 1.601,3.712 1.601,3.712 0.291,1.054 -0.355,2.521 -0.958,3.316l-1.043 2.274c0,0 -1.801,-2.097 -1.469,-4.608z"/>
    <path class="fil11" d="M726.822 381.879c0,0.425 -0.344,0.767 -0.767,0.767 -0.424,0 -0.767,-0.342 -0.767,-0.767 0,-0.423 0.343,-0.766 0.767,-0.766 0.423,0 0.767,0.343 0.767,0.766z"/>
   </g>
  </g>
 </g>
</svg>
