<?xml version="1.0" encoding="UTF-8"?>
<!DOCTYPE svg PUBLIC "-//W3C//DTD SVG 1.1//EN" "http://www.w3.org/Graphics/SVG/1.1/DTD/svg11.dtd">
<!-- Creator: CorelDRAW 2017 -->
<svg xmlns="http://www.w3.org/2000/svg" xml:space="preserve" width="25px" height="25px" version="1.1" style="shape-rendering:geometricPrecision; text-rendering:geometricPrecision; image-rendering:optimizeQuality; fill-rule:evenodd; clip-rule:evenodd"
viewBox="0 0 0.406 0.406"
 xmlns:xlink="http://www.w3.org/1999/xlink">
 <defs>
  <style type="text/css">
   <![CDATA[
    .fil0 {fill:#C40000}
    .fil1 {fill:white}
   ]]>
  </style>
 </defs>
 <g id="圖層_x0020_1">
  <metadata id="CorelCorpID_0Corel-Layer"/>
  <g id="_2630036215840">
   <rect class="fil0" width="0.406" height="0.406"/>
   <g>
    <path class="fil1" d="M0.345 0.251c0,-0.072 -0.051,-0.079 -0.09,-0.047 -0.025,0.021 -0.056,0.057 -0.056,0.022 0,-0.083 -0.083,-0.046 -0.138,0.025l0 0.077c0.055,-0.071 0.138,-0.108 0.138,-0.025 0,0.035 0.031,-0.002 0.056,-0.022 0.035,-0.029 0.081,-0.026 0.089,0.029l0.001 0 0 -0.059z"/>
    <path class="fil1" d="M0.345 0.15c0,-0.071 -0.051,-0.078 -0.09,-0.046 -0.025,0.02 -0.056,0.057 -0.056,0.022 0,-0.083 -0.083,-0.047 -0.138,0.025l0 0.072c0.056,-0.066 0.138,-0.103 0.138,-0.02 0,0.035 0.031,-0.002 0.056,-0.022 0.035,-0.029 0.081,-0.026 0.089,0.028l0.001 0 0 -0.059z"/>
   </g>
  </g>
 </g>
</svg>
